<?xml version="1.0" standalone="no"?>
<!DOCTYPE svg PUBLIC "-//W3C//DTD SVG 20010904//EN"
 "http://www.w3.org/TR/2001/REC-SVG-20010904/DTD/svg10.dtd">
<svg version="1.0" xmlns="http://www.w3.org/2000/svg"
 width="700.000000pt" height="700.000000pt" viewBox="0 0 700.000000 700.000000"
 preserveAspectRatio="xMidYMid meet">
<metadata>
Created by potrace 1.14, written by Peter Selinger 2001-2017
</metadata>
<g transform="translate(0.000000,700.000000) scale(0.100000,-0.100000)"
fill="#000000" stroke="none">
<path d="M320 6984 c-155 -47 -274 -172 -309 -325 -7 -29 -10 -1124 -8 -3274
2 -3058 3 -3232 20 -3262 22 -41 59 -78 100 -100 28 -16 64 -18 317 -18 l285
0 41 27 c48 31 79 71 97 125 11 31 13 658 12 3258 l-2 3220 -21 62 c-44 131
-134 225 -259 273 -71 28 -206 34 -273 14z"/>
<path d="M2407 6994 c-1 -1 -42 -4 -92 -8 -94 -6 -156 -13 -215 -22 -19 -4
-47 -8 -62 -10 -16 -2 -40 -6 -55 -8 -114 -16 -383 -78 -531 -121 -95 -29
-111 -33 -128 -34 -8 -1 -11 -639 -11 -2399 l-1 -2399 116 33 c63 19 165 45
226 59 109 25 126 29 196 41 60 10 74 13 115 19 22 3 54 7 70 10 186 28 463
36 694 21 63 -4 121 -9 130 -11 9 -1 43 -6 76 -9 135 -15 385 -63 625 -121 80
-19 156 -38 168 -40 13 -3 49 -13 80 -21 64 -17 68 -18 137 -34 28 -6 64 -15
80 -20 29 -9 189 -48 230 -56 74 -14 233 -46 250 -50 11 -2 38 -6 60 -9 22 -3
65 -10 95 -15 30 -5 87 -12 125 -16 39 -3 84 -8 100 -11 17 -2 131 -6 255 -7
202 -3 310 1 450 19 106 13 126 16 150 20 14 3 40 7 58 10 76 12 103 17 207
41 231 53 578 164 730 234 124 57 203 141 243 257 l22 63 0 2124 c0 2053 -1
2125 -19 2178 -26 76 -38 95 -101 159 -99 98 -217 140 -389 134 -113 -3 -172
-19 -316 -85 -312 -143 -750 -281 -1000 -316 -16 -2 -43 -7 -60 -10 -114 -20
-442 -26 -580 -11 -215 23 -409 69 -760 182 -237 75 -468 142 -555 160 -3 0
-39 8 -80 18 -96 21 -181 35 -250 41 -30 3 -84 8 -119 12 -59 6 -359 13 -364
8z"/>
</g>
</svg>
