<svg version="1.0" xmlns="http://www.w3.org/2000/svg" viewBox="0 0 100 100"><g transform="translate(0.000000,100.000000) scale(0.100000,-0.100000)" stroke="none"><path d="M0 989c0-7 30-53 67-103 93-126 268-369 276-382 3-6-72-116-168-245S0 19 0 13C0 3 107 0 5e2.0h5e2v5e2 5e2H5e2c-365 0-5e2-3-5e2-11zm840-494V340H680 520v148c0 82 3 152 7 155 3 4 75 7 160 7h153V495z"/><path d="M685 550l49-50-46-47c-41-40-49-45-63-33s-13 17 17 47l32 33-44 45c-24 25-48 45-52 45s-8-45-8-1e2V390h110 110v105 105h-77-77l49-50z"/></g></svg>